# Blender v3.2.2 OBJ File: 'map.blend'
# www.blender.org
mtllib lower_map.mtl
o Plane.001_Plane.003
v -124.879646 116.539490 -15.962631
v -121.505524 -114.913727 -15.962631
v 122.049919 109.428856 -15.962631
v 107.734169 -122.591507 -15.962631
v -127.901924 84.348007 -15.962631
v -124.772003 51.184982 -15.962631
v -119.940552 15.782166 -15.962631
v -126.539146 -19.000977 -15.962631
v -135.674240 -51.003403 -15.962631
v -124.879646 -85.353271 -15.962631
v 119.986069 -90.683617 -15.962631
v 121.847748 -44.701515 -15.962631
v 118.176880 -12.617683 -15.962631
v 127.285728 10.249644 -15.962631
v 121.469620 47.569294 -15.962631
v 121.658669 79.382660 -15.962631
v 90.992783 128.980438 -15.962631
v 47.628593 127.347206 -15.962631
v 12.630140 131.099457 -15.962631
v -16.255482 136.442932 -15.962631
v -58.175488 136.779022 -15.962631
v -91.136337 128.696854 -15.962631
v -76.442459 -129.418533 -15.962631
v -49.310844 -112.579407 -15.962631
v -24.311382 -125.398483 -15.962631
v 11.658607 -123.778358 -15.962631
v 49.976048 -130.579147 -15.962631
v 77.189049 -120.553902 -15.962631
v -165.162262 154.672943 -27.384518
v -160.677048 -152.997711 -27.384518
v 163.081085 145.220779 -27.384518
v 144.051163 -163.203781 -27.384518
v -169.179764 111.880821 -27.384518
v -165.019180 67.797226 -27.384518
v -158.596725 20.736280 -27.384518
v -167.368240 -25.500935 -27.384518
v -179.511505 -68.041748 -27.384518
v -165.162262 -113.703011 -27.384518
v 160.337616 -120.788635 -27.384518
v 162.812347 -59.664650 -27.384518
v 157.932663 -17.015627 -27.384518
v 170.041031 13.381901 -27.384518
v 162.309692 62.990891 -27.384518
v 162.561005 105.280388 -27.384518
v 121.796852 171.210693 -27.384518
v 64.152863 169.039642 -27.384518
v 17.629433 174.027512 -27.384518
v -20.768211 181.130585 -27.384518
v -76.492462 181.577347 -27.384518
v -120.307297 170.833725 -27.384518
v -100.774727 -172.278931 -27.384518
v -64.708687 -149.894699 -27.384518
v -31.476919 -166.935089 -27.384518
v 16.337975 -164.781464 -27.384518
v 67.273331 -173.821732 -27.384518
v 103.447556 -160.495178 -27.384518
v -167.525620 156.910217 -36.260342
v -165.430176 -157.618881 -36.260342
v 168.639526 150.069458 -36.260342
v 148.877487 -168.600906 -36.260342
v -191.538391 126.794304 -36.260342
v -212.537415 87.410645 -36.260342
v -227.878754 29.615351 -36.260342
v -226.896530 -34.977795 -36.260342
v -214.290619 -81.559433 -36.260342
v -188.326828 -130.005554 -36.260342
v 179.527740 -135.105774 -36.260342
v 210.829453 -77.203850 -36.260342
v 223.241379 -24.240341 -36.260342
v 224.011566 17.335783 -36.260342
v 209.971771 80.988533 -36.260342
v 189.381317 122.261940 -36.260342
v 131.322632 184.269867 -36.260342
v 81.150208 211.925705 -36.260342
v 23.726624 226.383011 -36.260342
v -25.375891 226.758469 -36.260342
v -88.526894 211.010269 -36.260342
v -131.856857 187.516830 -36.260342
v -114.705177 -196.816895 -36.260342
v -89.203896 -209.256622 -36.260342
v -41.170448 -223.125748 -36.260342
v 23.206530 -224.967407 -36.260342
v 81.818466 -210.184067 -36.260342
v 122.243172 -189.084808 -36.260342
v -416.711243 396.048523 -52.570229
v -411.453552 -393.137909 -52.570229
v 426.762329 378.884338 -52.570229
v 377.177277 -420.692902 -52.570229
v -476.961761 320.484528 -52.570229
v -529.650513 221.666809 -52.570229
v -568.143555 76.652390 -52.570229
v -565.679016 -85.418571 -52.570229
v -534.049500 -202.296768 -52.570229
v -468.903625 -323.853180 -52.570229
v 454.081970 -336.650146 -52.570229
v 532.621277 -191.368149 -52.570229
v 563.764038 -58.477169 -52.570229
v 565.696533 45.841675 -52.570229
v 530.469238 205.553085 -52.570229
v 478.805634 309.112335 -52.570229
v 333.130280 464.696777 -52.570229
v 207.242432 534.088196 -52.570229
v 63.160652 570.363037 -52.570229
v -60.042694 571.305115 -52.570229
v -218.495178 531.791260 -52.570229
v -327.214569 472.843719 -52.570229
v -284.179230 -491.489807 -52.570229
v -220.193878 -522.702332 -52.570229
v -99.672890 -557.501404 -52.570229
v 61.855682 -562.122375 -52.570229
v 208.919159 -525.029419 -52.570229
v 310.348969 -472.089172 -52.570229
vt 0.564440 0.591495
vt 0.587610 0.623196
vt 0.546467 0.628177
vt 0.533498 0.595183
vt 0.612929 0.482260
vt 0.652990 0.476349
vt 0.664953 0.523683
vt 0.622022 0.517544
vt 0.509211 0.645434
vt 0.505502 0.608160
vt 0.664585 0.563049
vt 0.622122 0.546925
vt 0.475463 0.664494
vt 0.480450 0.622553
vt 0.423900 0.624192
vt 0.400256 0.664733
vt 0.370541 0.620021
vt 0.402287 0.590002
vt 0.433721 0.661804
vt 0.449341 0.620818
vt 0.380500 0.584595
vt 0.410039 0.563370
vt 0.368873 0.432906
vt 0.327244 0.410985
vt 0.358233 0.387627
vt 0.392943 0.415955
vt 0.359182 0.560194
vt 0.394038 0.544819
vt 0.409303 0.371828
vt 0.431239 0.404564
vt 0.350760 0.519229
vt 0.387809 0.514163
vt 0.446465 0.366652
vt 0.459208 0.400674
vt 0.332621 0.477740
vt 0.374081 0.483237
vt 0.469807 0.350065
vt 0.476578 0.388189
vt 0.658535 0.602505
vt 0.619025 0.577533
vt 0.336418 0.444320
vt 0.376840 0.458178
vt 0.513517 0.346074
vt 0.509229 0.385159
vt 0.549301 0.337349
vt 0.535986 0.378401
vt 0.561066 0.371886
vt 0.582474 0.330035
vt 0.613245 0.358091
vt 0.583819 0.393651
vt 0.624644 0.406941
vt 0.591772 0.430371
vt 0.625577 0.616540
vt 0.592938 0.586960
vt 0.638873 0.445228
vt 0.602380 0.459048
vt 0.658020 0.382605
vt 0.682809 0.428553
vt 0.644563 0.632897
vt 0.615435 0.659803
vt 0.693671 0.470454
vt 0.569332 0.685664
vt 0.693754 0.527908
vt 0.513855 0.698797
vt 0.682868 0.570233
vt 0.471223 0.698051
vt 0.395452 0.672893
vt 0.351743 0.638285
vt 0.423979 0.686159
vt 0.335416 0.619073
vt 0.318593 0.406446
vt 0.340608 0.373513
vt 0.312973 0.580974
vt 0.383495 0.334131
vt 0.297427 0.526271
vt 0.426139 0.312081
vt 0.297574 0.472837
vt 0.461525 0.302517
vt 0.665209 0.606724
vt 0.307207 0.433600
vt 0.519000 0.300943
vt 0.558793 0.309925
vt 0.586941 0.321268
vt 0.623610 0.345593
vt 0.726358 0.051470
vt 0.819658 0.112582
vt 0.656053 0.022186
vt 0.906327 0.205120
vt 0.922123 0.768299
vt 0.871293 0.835184
vt 0.968656 0.320833
vt 0.799426 0.901280
vt 0.995956 0.426252
vt 0.683834 0.966381
vt 0.995956 0.570733
vt 0.544103 0.999900
vt 0.968505 0.676358
vt 0.436892 0.998166
vt 0.247253 0.934427
vt 0.135930 0.847290
vt 0.318411 0.968468
vt 0.095390 0.799551
vt 0.053567 0.265951
vt 0.108522 0.182230
vt 0.039208 0.703846
vt 0.216160 0.083255
vt 0.000100 0.565857
vt 0.323552 0.027874
vt 0.000506 0.431388
vt 0.412605 0.003856
vt 0.024132 0.333820
vt 0.557144 0.000100
vn -0.2878 -0.0393 0.9569
vn 0.0020 0.2478 0.9688
vn -0.2768 0.0525 0.9595
vn -0.0553 0.2254 0.9727
vn -0.2803 0.0800 0.9566
vn -0.0706 -0.2193 0.9731
vn -0.2256 -0.0709 0.9716
vn 0.2298 -0.3703 0.9000
vn 0.2142 -0.0822 0.9733
vn -0.1246 -0.2430 0.9620
vn 0.2649 -0.0107 0.9642
vn 0.0120 -0.2671 0.9636
vn 0.2793 0.0320 0.9597
vn -0.0485 -0.2732 0.9607
vn 0.2638 -0.1051 0.9588
vn -0.0762 0.2114 0.9744
vn 0.0824 -0.2236 0.9712
vn 0.2552 0.0398 0.9661
vn -0.2538 -0.0290 0.9668
vn 0.2699 -0.0016 0.9629
vn -0.0191 -0.2865 0.9579
vn 0.1140 0.1811 0.9768
vn 0.2710 -0.0035 0.9626
vn -0.0101 0.2679 0.9634
vn -0.2519 0.0237 0.9675
vn 0.0272 0.2541 0.9668
vn -0.2831 -0.0267 0.9587
vn 0.0466 0.2518 0.9667
vn 0.0328 0.1754 0.9839
vn -0.2249 0.0454 0.9733
vn 0.0152 0.1780 0.9839
vn -0.1473 0.0125 0.9890
vn -0.0288 0.2240 0.9742
vn -0.1366 0.0096 0.9906
vn -0.1191 0.3031 0.9455
vn -0.1848 -0.0010 0.9828
vn -0.2138 -0.4044 0.8893
vn -0.2422 -0.1037 0.9647
vn 0.0360 -0.2226 0.9742
vn 0.4248 -0.2626 0.8664
vn -0.0520 -0.1366 0.9893
vn 0.2263 -0.0642 0.9719
vn 0.0004 -0.1508 0.9886
vn 0.1522 -0.0120 0.9883
vn 0.0094 -0.1788 0.9838
vn 0.1464 -0.0262 0.9889
vn -0.3040 0.5234 0.7961
vn 0.0970 -0.2158 0.9716
vn 0.1653 0.0318 0.9857
vn -0.4307 -0.1763 0.8851
vn 0.2089 0.0508 0.9766
vn 0.1061 -0.4014 0.9097
vn 0.3676 0.4800 0.7966
vn 0.4121 0.1230 0.9028
vn 0.0647 0.2738 0.9596
vn -0.4845 0.1863 0.8547
vn 0.0321 0.0350 0.9989
vn 0.0380 0.0283 0.9989
vn 0.0229 0.0416 0.9989
vn -0.0370 0.0295 0.9989
vn 0.0116 0.0460 0.9989
vn -0.0419 0.0223 0.9989
vn 0.0004 0.0473 0.9989
vn -0.0462 0.0123 0.9989
vn -0.0115 0.0461 0.9989
vn -0.0480 -0.0007 0.9988
vn -0.0226 0.0416 0.9989
vn -0.0462 -0.0125 0.9989
vn -0.0296 -0.0383 0.9988
vn -0.0424 -0.0227 0.9988
vn -0.0211 -0.0432 0.9988
vn 0.0355 -0.0325 0.9988
vn -0.0134 -0.0464 0.9988
vn 0.0425 -0.0230 0.9988
vn -0.0014 -0.0485 0.9988
vn 0.0467 -0.0110 0.9988
vn 0.0118 -0.0470 0.9988
vn 0.0478 -0.0009 0.9989
vn -0.0309 0.0360 0.9989
vn 0.0223 -0.0427 0.9988
vn 0.0468 0.0103 0.9989
vn -0.0369 -0.0306 0.9988
vn 0.0426 0.0212 0.9989
vn 0.0293 -0.0381 0.9988
usemtl Cliff
s off
f 6/1/1 34/2/1 35/3/1 7/4/1
f 20/5/2 48/6/2 49/7/2 21/8/2
f 7/4/3 35/3/3 36/9/3 8/10/3
f 21/8/4 49/7/4 50/11/4 22/12/4
f 8/10/5 36/9/5 37/13/5 9/14/5
f 2/15/6 30/16/6 51/17/6 23/18/6
f 9/14/7 37/13/7 38/19/7 10/20/7
f 23/18/8 51/17/8 52/21/8 24/22/8
f 4/23/9 32/24/9 39/25/9 11/26/9
f 24/22/10 52/21/10 53/27/10 25/28/10
f 11/26/11 39/25/11 40/29/11 12/30/11
f 25/28/12 53/27/12 54/31/12 26/32/12
f 12/30/13 40/29/13 41/33/13 13/34/13
f 26/32/14 54/31/14 55/35/14 27/36/14
f 13/34/15 41/33/15 42/37/15 14/38/15
f 22/12/16 50/11/16 29/39/16 1/40/16
f 27/36/17 55/35/17 56/41/17 28/42/17
f 14/38/18 42/37/18 43/43/18 15/44/18
f 10/20/19 38/19/19 30/16/19 2/15/19
f 15/44/20 43/43/20 44/45/20 16/46/20
f 28/42/21 56/41/21 32/24/21 4/23/21
f 3/47/22 31/48/22 45/49/22 17/50/22
f 16/46/23 44/45/23 31/48/23 3/47/23
f 17/50/24 45/49/24 46/51/24 18/52/24
f 1/40/25 29/39/25 33/53/25 5/54/25
f 18/52/26 46/51/26 47/55/26 19/56/26
f 5/54/27 33/53/27 34/2/27 6/1/27
f 19/56/28 47/55/28 48/6/28 20/5/28
f 46/51/29 74/57/29 75/58/29 47/55/29
f 33/53/30 61/59/30 62/60/30 34/2/30
f 47/55/31 75/58/31 76/61/31 48/6/31
f 34/2/32 62/60/32 63/62/32 35/3/32
f 48/6/33 76/61/33 77/63/33 49/7/33
f 35/3/34 63/62/34 64/64/34 36/9/34
f 49/7/35 77/63/35 78/65/35 50/11/35
f 36/9/36 64/64/36 65/66/36 37/13/36
f 30/16/37 58/67/37 79/68/37 51/17/37
f 37/13/38 65/66/38 66/69/38 38/19/38
f 51/17/39 79/68/39 80/70/39 52/21/39
f 32/24/40 60/71/40 67/72/40 39/25/40
f 52/21/41 80/70/41 81/73/41 53/27/41
f 39/25/42 67/72/42 68/74/42 40/29/42
f 53/27/43 81/73/43 82/75/43 54/31/43
f 40/29/44 68/74/44 69/76/44 41/33/44
f 54/31/45 82/75/45 83/77/45 55/35/45
f 41/33/46 69/76/46 70/78/46 42/37/46
f 50/11/47 78/65/47 57/79/47 29/39/47
f 55/35/48 83/77/48 84/80/48 56/41/48
f 42/37/49 70/78/49 71/81/49 43/43/49
f 38/19/50 66/69/50 58/67/50 30/16/50
f 43/43/51 71/81/51 72/82/51 44/45/51
f 56/41/52 84/80/52 60/71/52 32/24/52
f 31/48/53 59/83/53 73/84/53 45/49/53
f 44/45/54 72/82/54 59/83/54 31/48/54
f 45/49/55 73/84/55 74/57/55 46/51/55
f 29/39/56 57/79/56 61/59/56 33/53/56
f 59/83/57 87/85/57 101/86/57 73/84/57
f 72/82/58 100/87/58 87/85/58 59/83/58
f 73/84/59 101/86/59 102/88/59 74/57/59
f 57/79/60 85/89/60 89/90/60 61/59/60
f 74/57/61 102/88/61 103/91/61 75/58/61
f 61/59/62 89/90/62 90/92/62 62/60/62
f 75/58/63 103/91/63 104/93/63 76/61/63
f 62/60/64 90/92/64 91/94/64 63/62/64
f 76/61/65 104/93/65 105/95/65 77/63/65
f 63/62/66 91/94/66 92/96/66 64/64/66
f 77/63/67 105/95/67 106/97/67 78/65/67
f 64/64/68 92/96/68 93/98/68 65/66/68
f 58/67/69 86/99/69 107/100/69 79/68/69
f 65/66/70 93/98/70 94/101/70 66/69/70
f 79/68/71 107/100/71 108/102/71 80/70/71
f 60/71/72 88/103/72 95/104/72 67/72/72
f 80/70/73 108/102/73 109/105/73 81/73/73
f 67/72/74 95/104/74 96/106/74 68/74/74
f 81/73/75 109/105/75 110/107/75 82/75/75
f 68/74/76 96/106/76 97/108/76 69/76/76
f 82/75/77 110/107/77 111/109/77 83/77/77
f 69/76/78 97/108/78 98/110/78 70/78/78
f 78/65/79 106/97/79 85/89/79 57/79/79
f 83/77/80 111/109/80 112/111/80 84/80/80
f 70/78/81 98/110/81 99/112/81 71/81/81
f 66/69/82 94/101/82 86/99/82 58/67/82
f 71/81/83 99/112/83 100/87/83 72/82/83
f 84/80/84 112/111/84 88/103/84 60/71/84
